<?xml version="1.0" standalone="no"?>
<!DOCTYPE svg PUBLIC "-//W3C//DTD SVG 20010904//EN"
 "http://www.w3.org/TR/2001/REC-SVG-20010904/DTD/svg10.dtd">
<svg version="1.0" xmlns="http://www.w3.org/2000/svg"
 width="700.000000pt" height="700.000000pt" viewBox="0 0 700.000000 700.000000"
 preserveAspectRatio="xMidYMid meet">
<metadata>
Created by potrace 1.11, written by Peter Selinger 2001-2013
</metadata>
<g transform="translate(0.000000,700.000000) scale(0.100000,-0.100000)"
fill="#000000" stroke="none">
<path d="M3278 6995 c-1 -1 -41 -5 -88 -9 -97 -8 -98 -8 -325 -42 -16 -3 -37
-7 -45 -9 -8 -2 -26 -6 -40 -9 -144 -26 -426 -112 -596 -182 -89 -36 -333
-153 -409 -196 -71 -40 -198 -121 -257 -163 -31 -22 -66 -47 -78 -55 -13 -8
-59 -44 -104 -79 -316 -250 -582 -546 -801 -891 -74 -117 -214 -380 -245 -460
-7 -19 -19 -48 -26 -65 -70 -158 -161 -460 -198 -660 -32 -165 -37 -202 -53
-375 -15 -163 -8 -592 12 -711 2 -13 6 -46 9 -74 9 -78 22 -152 51 -285 21
-96 91 -339 114 -395 5 -11 26 -65 46 -120 48 -126 168 -373 235 -485 114
-188 311 -459 404 -556 206 -212 258 -263 361 -350 33 -28 98 -79 145 -115 47
-35 87 -67 88 -71 2 -5 8 -8 13 -8 6 0 40 -21 76 -46 137 -96 412 -243 598
-320 263 -108 580 -194 840 -229 22 -2 56 -7 75 -10 185 -26 693 -27 838 -1
19 4 89 14 142 21 19 3 46 7 60 10 14 3 41 8 60 11 79 13 343 86 468 129 201
69 503 208 612 281 19 13 38 24 43 24 4 0 13 5 20 10 7 6 64 45 127 87 402
265 761 636 1022 1056 87 141 203 367 263 512 68 164 151 426 181 570 16 79
54 301 59 350 4 33 9 71 11 85 9 47 11 525 4 605 -13 130 -21 202 -25 227 -3
13 -8 43 -11 68 -3 25 -9 61 -14 80 -5 19 -12 51 -15 70 -11 63 -64 269 -79
305 -8 19 -13 35 -11 35 4 0 -57 177 -75 215 -5 11 -27 65 -50 120 -224 537
-643 1061 -1140 1426 -211 155 -454 296 -660 384 -36 15 -80 34 -99 42 -125
55 -415 143 -586 178 -44 9 -89 19 -100 21 -11 2 -38 6 -60 9 -22 3 -51 7 -65
10 -13 2 -52 7 -86 11 -33 3 -74 8 -90 10 -32 5 -540 14 -546 9z m2319 -1402
c-7 -13 -97 -205 -97 -208 0 -2 -29 -65 -65 -140 -36 -75 -65 -138 -65 -139 0
-2 -26 -59 -59 -127 -66 -141 -113 -241 -146 -314 -27 -60 -351 -757 -405
-870 -38 -81 -76 -162 -135 -290 -18 -38 -46 -99 -63 -135 -16 -36 -41 -90
-55 -120 -14 -30 -43 -93 -65 -140 -22 -47 -60 -130 -86 -185 -84 -180 -89
-188 -126 -207 -58 -29 -290 -138 -294 -138 -4 0 -94 -42 -329 -154 -65 -31
-120 -56 -122 -56 -2 0 -60 -27 -130 -60 -70 -33 -128 -60 -130 -60 -2 0 -64
-29 -137 -64 -113 -54 -301 -141 -588 -274 -36 -17 -105 -49 -155 -72 -49 -23
-115 -53 -145 -67 -30 -14 -111 -52 -179 -84 -67 -33 -124 -59 -126 -59 -2 0
-86 -39 -187 -86 -100 -47 -208 -98 -238 -111 -30 -14 -59 -28 -63 -30 -5 -3
-5 3 1 13 5 11 20 42 32 69 28 63 64 139 134 289 31 65 56 119 56 121 0 1 24
54 54 116 29 63 80 173 114 244 33 72 79 171 102 220 47 100 156 335 188 406
12 25 46 100 77 165 31 65 79 168 107 228 27 60 53 116 58 125 9 16 52 109
103 221 13 30 44 96 67 145 23 50 55 117 70 150 15 33 48 103 72 155 25 52 55
118 68 146 20 46 29 55 79 77 106 48 366 169 490 228 68 32 125 59 126 59 3 0
455 210 710 330 125 58 214 100 332 154 67 31 174 81 238 111 64 30 118 55
120 55 1 0 58 26 126 59 68 32 147 68 174 81 53 23 143 66 285 133 234 110
214 101 207 90z"/>
<path d="M3429 3878 c-214 -44 -353 -257 -302 -462 21 -82 43 -123 95 -178
197 -207 536 -138 638 129 66 174 -15 390 -177 471 -82 42 -177 56 -254 40z"/>
</g>
</svg>
